<?xml version="1.0" encoding="utf-8"?>
<!-- Generator: Adobe Illustrator 21.1.0, SVG Export Plug-In . SVG Version: 6.00 Build 0)  -->
<svg version="1.1" id="Layer_1" xmlns="http://www.w3.org/2000/svg" xmlns:xlink="http://www.w3.org/1999/xlink" x="0px" y="0px"
	 viewBox="0 0 141 116" style="enable-background:new 0 0 141 116;" xml:space="preserve">
<style type="text/css">
	.st0{fill:#0062D9;}
	.st1{fill:#FD0082;}
	.st2{fill:#0063DA;}
	.st3{fill:#FE0083;}
	.st4{fill:#0C53AA;}
	.st5{fill:#0169E6;}
	.st6{fill:#0E478D;}
	.st7{fill:#853D69;}
	.st8{fill:#0449A1;}
	.st9{fill:#005CD1;}
	.st10{fill:#0155B7;}
	.st11{fill:#C91974;}
	.st12{fill:#3F5670;}
	.st13{fill:#3F566F;}
	.st14{fill:#326197;}
	.st15{fill:#C20C67;}
	.st16{fill:#19395A;}
	.st17{fill:#0348A0;}
	.st18{fill:#783C5F;}
	.st19{fill:#023474;}
	.st20{fill:#3F556F;}
	.st21{fill:#023475;}
	.st22{fill:#C31E74;}
	.st23{fill:#4B5B71;}
	.st24{fill:#285187;}
	.st25{fill:#526681;}
	.st26{fill:#E00075;}
	.st27{fill:#385888;}
	.st28{fill:#214B82;}
	.st29{fill:#1254A8;}
	.st30{fill:#A41863;}
	.st31{fill:#154F91;}
	.st32{fill:#BE2374;}
	.st33{fill:#1756A1;}
	.st34{fill:#B21666;}
	.st35{fill:#0153BA;}
	.st36{fill:#0C3B74;}
	.st37{fill:#0155BB;}
	.st38{fill:#0055BA;}
	.st39{fill:#084CA4;}
	.st40{fill:#054EAE;}
	.st41{fill:#185295;}
	.st42{fill:#0353B9;}
	.st43{fill:#0B53A7;}
	.st44{fill:#A91E65;}
	.st45{fill:#135096;}
	.st46{fill:#0B4EA2;}
	.st47{fill:#173E6A;}
	.st48{fill:#A20A59;}
	.st49{fill:#124A8F;}
	.st50{fill:#054FA7;}
	.st51{fill:#0B3264;}
	.st52{fill:#861D51;}
	.st53{fill:#3A5C85;}
	.st54{fill:#626C7E;}
	.st55{fill:#4D6178;}
	.st56{fill:#AF0F64;}
	.st57{fill:#A1175F;}
	.st58{fill:#A50658;}
	.st59{fill:#425D7B;}
	.st60{fill:#68143A;}
	.st61{fill:#275184;}
	.st62{fill:#8B295F;}
	.st63{fill:#0D3F7F;}
	.st64{fill:#6C1440;}
	.st65{fill:#194171;}
	.st66{fill:#890C53;}
	.st67{fill:#05499A;}
	.st68{fill:#7E1D4A;}
	.st69{fill:#094DA1;}
	.st70{fill:#C0166F;}
	.st71{fill:#8A2255;}
	.st72{fill:#0A4487;}
	.st73{fill:#0B498E;}
	.st74{fill:#264A79;}
	.st75{fill:#0C4283;}
	.st76{fill:#0C417A;}
	.st77{fill:#456382;}
	.st78{fill:#17447F;}
	.st79{fill:#A40F5D;}
	.st80{fill:#A6115E;}
	.st81{fill:#0A3565;}
	.st82{fill:#A80C5D;}
	.st83{fill:#36516D;}
	.st84{fill:#1151A2;}
	.st85{fill:#004CA6;}
	.st86{fill:#B01263;}
	.st87{fill:#0E4FAB;}
	.st88{fill:#0A4CA1;}
	.st89{fill:#0067E2;}
	.st90{fill:#0068E7;}
	.st91{fill:#0B4690;}
	.st92{fill:#D70074;}
	.st93{fill:#FE028C;}
	.st94{fill:#0067E4;}
	.st95{fill:#0069E7;}
	.st96{fill:#0065E2;}
	.st97{fill:#016EFA;}
</style>
<path class="st0" d="M69.8,38c0,16.8-13.7,30.5-30.7,30.3c-16.6-0.2-30.1-13.7-30-30.4C9.2,21.2,22.8,7.5,39.7,7.7
	C56.4,7.9,69.8,21.4,69.8,38z"/>
<path class="st1" d="M135.4,38.1c0,16.8-13.7,30.5-30.6,30.3c-16.6-0.2-30.1-13.7-30-30.5c0.1-16.7,13.8-30.3,30.6-30.1
	C121.9,7.9,135.4,21.4,135.4,38.1z"/>
<path class="st2" d="M112.4,82.9c-0.5,0.6-0.9,1.3-1.4,1.9c-0.9,1.3-1.9,2.5-2.8,3.8c-0.8,1.1-1.7,2.3-2.5,3.4
	c-0.6,0.8-1.1,1.5-1.7,2.3c-0.1,0.1-0.1,0.1,0,0.2c0.5,0.7,1,1.5,1.5,2.3c0.9,1.3,1.8,2.6,2.7,3.9c1,1.5,2,3,3,4.4
	c0.6,1,1.3,2,1.9,2.9c0,0.2-0.2,0.1-0.3,0.1c-0.9,0-1.8,0-2.7,0c-2.2,0-4.4,0-6.7,0c-0.3,0-0.5-0.1-0.7-0.3
	c-0.4-0.8-0.8-1.5-1.3-2.3c-0.8-1.5-1.6-2.9-2.4-4.4c-0.7-1.3-1.3-2.5-2-3.8c-0.3-0.6-0.6-1.1-0.9-1.7c0-0.1-0.1-0.2-0.2-0.1
	c-0.1,0.1,0,0.2,0,0.4c0,3.9,0,7.8,0,11.7c0,0.1,0,0.3,0,0.4c-0.1,0.1-0.3,0.1-0.4,0.1c-2.4,0-4.8,0-7.3,0c-0.2,0-0.4,0-0.6,0
	c-0.1-0.1-0.1-0.3-0.1-0.4c0-11.9,0-23.8,0-35.7c0-0.5,0-0.5,0.5-0.5c2.5,0,5,0,7.4,0c0.2,0,0.3-0.1,0.5,0.1c0,0.1,0,0.3,0,0.4
	c0,6.8,0,13.7,0,20.5c0,0.1,0,0.3,0,0.4c0,0.1,0,0.2,0,0.4c0.3-0.4,0.5-0.8,0.8-1.1c2.1-3.2,4.2-6.3,6.3-9.5c0,0,0.1-0.1,0.1-0.1
	c0.1-0.1,0.2,0,0.3,0c2.9,0,5.7,0,8.6,0C112.2,82.7,112.5,82.6,112.4,82.9z"/>
<path class="st2" d="M29.1,72.8c0,0.1,0,0.2,0,0.3c-0.1,0.1,0,0.3,0,0.4c0,0.1,0,0.2,0,0.3c0,0.2-0.1,0.3-0.1,0.5c0,0.1,0,0.2,0,0.3
	c-0.1,0.1,0,0.3,0,0.4c0,0.6-0.1,1.2-0.1,1.8c-0.1,0.1,0,0.3-0.1,0.4c0.1,0.3,0,0.4-0.3,0.3c-0.4-0.1-0.7-0.2-1.1-0.3
	c-0.1-0.1-0.3,0-0.4-0.1c-0.1,0-0.2,0-0.2,0c-0.3-0.1-0.6-0.1-1,0c-0.2,0.1-0.4,0.1-0.6,0.1c-0.4,0.1-0.7,0.4-1.1,0.6
	c-0.1,0.1-0.2,0.2-0.2,0.3c-0.2,0.5-0.5,0.9-0.6,1.4c-0.1,0.2,0,0.4-0.1,0.6c0,0.1,0,0.2,0,0.3c0,0.7,0,1.3,0,2c0,0.1,0,0.2,0.1,0.2
	c1.9,0,3.7,0,5.6,0c0.1,0,0.2,0,0.4,0c0,1.9,0,3.9,0,5.8c0,0.1,0,0.2,0,0.4c-0.1,0-0.1,0-0.2-0.1c-1.9,0-3.8,0-5.7,0
	c0,0-0.1,0-0.1,0C23,89,23,89,23,89.1c0,6.1,0,12.3,0,18.4c0,0.2,0.1,0.5-0.1,0.6c-0.1,0.1-0.2,0-0.4,0c-2.5,0-5,0-7.5,0
	c-0.1,0-0.3,0-0.4-0.1c0-0.1,0-0.3,0-0.4c0-6.1,0-12.3,0-18.4c0-0.1,0-0.2,0-0.3c0-0.1-0.1-0.1-0.2-0.1c-1.4,0-2.7,0-4.1,0
	c-0.2,0-0.3,0-0.5,0c0,0-0.1,0-0.1,0c0-2,0-4.1,0-6.1c0.1-0.1,0.2,0,0.4,0c1.5,0,2.9,0,4.4,0c0.1,0,0.3,0.1,0.3-0.1
	c0-0.8,0-1.5,0-2.3c0-0.1,0-0.2,0-0.3c0-0.1,0-0.2,0-0.3c0.1-0.2,0-0.4,0-0.6c0,0,0-0.1,0-0.1c0.1-0.1,0-0.3,0-0.4
	c0-0.6,0.1-1.1,0.3-1.7c0.1-0.1,0-0.2,0.1-0.3c0.5-2,1.7-3.5,3.5-4.4c1.1-0.6,2.3-0.9,3.6-1.1c0.1,0,0.2,0,0.4,0c0.1,0,0.3,0,0.4,0
	c0.1,0,0.2,0,0.3,0c0.2-0.1,0.5,0,0.7-0.1c0.6,0,1.1,0,1.7,0c0.2,0,0.4,0,0.6,0c0.1,0,0.2,0,0.3,0.1c0.1,0.1,0.3,0,0.4,0.1
	c0.6,0,1.2,0.1,1.7,0.3c0.1,0.1,0.3,0,0.5,0.1c0.2,0,0.1,0.1,0.1,0.2c-0.1,0.1,0,0.3,0,0.4c0,0.1,0,0.2,0,0.4
	C29.1,72.5,29.1,72.7,29.1,72.8z"/>
<path class="st2" d="M83.8,84.3c0,0.1,0,0.2,0,0.2c-0.1,0.1,0,0.3-0.1,0.4c0,0.1,0,0.2,0,0.3c-0.1,0.1,0,0.3-0.1,0.4
	c0,0.1,0,0.2,0,0.3c-0.1,0.1,0,0.3-0.1,0.4c0,0.1,0,0.1,0,0.2c-0.1,0.1,0,0.3,0,0.4c0,0.1,0,0.2,0,0.3c0,0.2,0,0.3,0,0.5
	c0,0.6-0.1,1.3-0.2,1.9c0,0.2,0.1,0.4-0.1,0.5c-0.1,0-0.3-0.1-0.4-0.2c-0.9-0.5-1.9-0.8-2.9-1c-0.3-0.1-0.6,0-0.9-0.1
	c-0.7,0-1.3,0-2,0.1c-0.1,0-0.2,0-0.3,0c-1.2,0.3-2.3,0.8-3.2,1.7c-0.9,0.9-1.4,1.9-1.7,3.1c0,0.1,0,0.1-0.1,0.2
	c-0.1,0.2-0.1,0.4-0.1,0.6c0,0.4-0.1,0.8-0.1,1.3c0,2,0.8,3.7,2.4,5c1.1,0.9,2.3,1.4,3.7,1.5c0.1,0,0.2,0.1,0.4,0.1
	c0.4,0,0.9,0,1.3,0c0.1,0,0.2,0,0.3,0c0.1,0,0.3,0,0.4,0c0.5-0.1,1-0.2,1.6-0.3c0.1,0,0.2-0.1,0.3-0.1c0.1,0,0.1,0,0.2,0
	c0.2-0.2,0.5-0.2,0.7-0.3c0.3-0.1,0.6-0.3,1-0.4c0.2-0.1,0.2,0,0.2,0.2c0,0.3,0,0.6,0,0.9c0,0.3,0,0.6,0,0.9c0.1,0.5,0,1,0.1,1.5
	c0,0.2,0,0.4,0,0.7c0.1,0.6,0,1.1,0,1.7c0,0.7,0,0.7-0.6,0.9c-0.1,0-0.3,0.1-0.4,0.1c-0.3,0.1-0.6,0.2-1,0.2
	c-0.5,0.2-1.1,0.2-1.6,0.3c-0.2,0-0.4,0.1-0.7,0.1c-0.1,0.1-0.2,0-0.3,0.1c-0.1,0-0.2,0-0.3,0c-0.2,0.1-0.3,0-0.5,0
	c-0.2,0-0.3,0-0.5,0c-0.2,0.1-0.4,0-0.6,0.1c-0.4,0-0.8,0-1.2,0c-0.2-0.1-0.5,0-0.7-0.1c-0.1,0-0.2,0-0.3,0c-0.1-0.1-0.3,0-0.5-0.1
	c-1.6-0.1-3.1-0.5-4.5-1.1c-1.5-0.6-2.9-1.5-4.1-2.7c-1.2-1.2-2.1-2.5-2.7-4.1c-0.5-1.2-0.8-2.5-0.9-3.9c-0.1-0.8-0.1-1.7,0-2.5
	c0.2-2.7,1-5.2,2.7-7.4c1-1.3,2.2-2.3,3.7-3c1.3-0.7,2.8-1.3,4.3-1.5c0.4-0.1,0.7-0.1,1.1-0.2c0.1-0.1,0.2,0,0.4-0.1
	c0.1,0,0.1,0,0.2,0c0.1-0.1,0.2,0,0.4-0.1c0.1,0,0.3,0,0.4,0c0.1-0.1,0.3,0,0.4,0c0.7,0,1.4,0,2,0c0.1,0,0.2,0,0.4,0
	c0.1,0.1,0.2,0,0.4,0c0.9,0.2,1.8,0.2,2.7,0.5c0.6,0.2,1.2,0.4,1.7,0.6c0.2,0.1,0.4,0.3,0.3,0.5C83.8,84,83.8,84.2,83.8,84.3z"/>
<path class="st2" d="M33.5,108.1c0-0.1,0-0.2,0-0.4c0-11.9,0-23.8,0-35.6c0-0.2,0-0.3,0-0.5c0,0,0.1,0,0.1,0c2.6,0,5.2,0,7.8,0
	c0.5,0,0.5,0,0.5,0.5c0,11.9,0,23.8,0,35.7c0,0.1,0,0.2,0,0.4c-0.1,0.1-0.3,0.1-0.4,0.1c-2.5,0-5.1,0-7.6,0
	C33.8,108.2,33.6,108.2,33.5,108.1z"/>
<path class="st3" d="M134,82.4c0.3,0,0.4,0.1,0.3,0.4c0,0.2,0,0.4,0,0.6c0,0.1,0,0.3,0,0.4c0,0.1,0,0.3,0,0.4c0,0.1,0,0.2,0,0.3
	c0,0.1,0,0.3,0,0.4c0,0.1,0,0.3,0,0.4c0,0.1,0,0.2,0,0.3c-0.1,0.1,0,0.3,0,0.4c0,0.1,0,0.3,0,0.4c0,0.1,0,0.2,0,0.2
	c-0.1,0.1,0,0.3,0,0.4c0,0.1,0,0.3,0,0.4c0,0.1,0,0.2,0,0.4c-0.1,0.2,0,0.5-0.1,0.8c0,0.1,0,0.2,0,0.3c-0.1,0.3,0,0.5-0.1,0.8
	c0,0.1,0,0.1-0.1,0.1c-0.2,0-0.4-0.1-0.6-0.2c-0.1,0-0.2,0-0.3,0c-0.1,0-0.1,0-0.2,0c-0.2-0.1-0.3,0-0.5,0c-0.1,0-0.1,0-0.2,0
	c-0.5-0.1-1-0.1-1.5,0c0,0-0.1,0-0.1,0c-0.1,0-0.2-0.1-0.4,0c-0.9,0.2-1.7,0.4-2.4,0.9c-1.1,0.7-1.7,1.8-2.2,2.9
	c0,0.1-0.1,0.2-0.2,0.4c-0.1,0.3-0.2,0.7-0.2,1.1c-0.1,0.4-0.1,0.8-0.2,1.2c-0.1,0.2,0,0.4-0.1,0.6c0,0.1,0,0.2,0,0.3
	c0,0.1,0,0.2,0,0.4c0,3.5,0,7,0,10.5c0,0.1,0,0.2,0,0.4c-0.1,0.1-0.2,0.1-0.4,0.1c-2.5,0-5,0-7.6,0c-0.1,0-0.2,0-0.4,0
	c-0.1-0.2-0.1-0.4-0.1-0.6c0-7.9,0-15.9,0-23.8c0-0.3,0-0.6,0.1-0.8c0-0.1,0.1-0.1,0.2-0.1c2.4,0,4.9,0,7.3,0
	c0.2,0.1,0.1,0.3,0.1,0.4c0,1.3,0,2.6,0,3.9c0,0.1-0.1,0.2,0.1,0.3c0.4-0.5,0.6-1.1,0.9-1.6c0.3-0.5,0.6-1,1.1-1.4
	c0.1-0.1,0.2-0.2,0.3-0.3c1.2-1.2,2.6-1.8,4.3-1.9c0.4-0.1,0.8,0,1.2,0c0.1,0,0.3,0,0.4,0c0.1,0,0.2,0,0.3,0c0.1,0.1,0.3,0,0.4,0.1
	c0.2,0,0.4,0.1,0.6,0.1C133.8,82.4,133.9,82.3,134,82.4z"/>
<path class="st4" d="M87.7,108.1c2.8,0,5.5,0,8.3,0c0,0,0,0,0.1,0c0,0.2-0.2,0.1-0.2,0.1c-2.7,0-5.3,0-8,0c-0.2,0-0.3-0.1-0.3-0.3
	c0-0.1,0-0.2,0-0.2c0-11.9,0-23.9,0-35.8c0-0.1-0.1-0.3,0.1-0.4c0,0,0,0.1,0,0.1c0,0.1,0,0.3,0,0.4c0,11.9,0,23.7,0,35.6
	C87.7,107.8,87.6,108,87.7,108.1z"/>
<path class="st5" d="M41.9,108.1c0-12,0-24,0-36c0-0.5,0-0.5-0.5-0.5c-2.6,0-5.2,0-7.8,0c-0.1,0-0.1,0-0.1-0.1c0.1-0.1,0.2,0,0.2,0
	c2.6,0,5.3,0,7.9,0c0.1,0,0.2,0,0.2,0c0,0.1,0,0.2,0,0.3c0,11.9,0,23.9,0,35.8C42,107.9,42,108,41.9,108.1
	C41.9,108.2,41.9,108.2,41.9,108.1z"/>
<path class="st4" d="M57.7,82.8c0.1,0.1,0,0.2,0,0.3c0,8.3,0,16.5,0,24.8c0,0.3-0.1,0.4-0.4,0.4c-2.6,0-5.2,0-7.8,0
	c-0.1,0-0.2,0-0.3,0c0-0.1,0.1-0.1,0.1-0.1c0,0,0.1,0,0.1,0c2.5,0,5,0,7.5,0c0.2,0,0.3,0,0.5,0c0,0,0.1,0,0.1-0.1
	c0.1-0.1,0-0.2,0-0.3c0-8.2,0-16.4,0-24.5c0-0.1,0-0.1,0-0.2c0,0,0-0.1,0-0.1C57.7,82.7,57.7,82.7,57.7,82.8z"/>
<path class="st6" d="M23,89c0-0.1,0-0.1,0.1-0.1c0,0,0.1,0,0.1,0.1c0,0.1,0,0.3,0,0.4c0,6.2,0,12.3,0,18.5c0,0.1,0.1,0.4-0.2,0.4
	c0,0,0-0.1,0-0.1c0.1-0.1,0-0.2,0-0.3c0-6.2,0-12.4,0-18.6C22.9,89.1,22.9,89.1,23,89z"/>
<path class="st7" d="M124.9,108.2c-0.1,0.1-0.2,0-0.3,0c-2.6,0-5.2,0-7.9,0c-0.3,0-0.3-0.1-0.3-0.4c0-8.3,0-16.6,0-24.8
	c0-0.1,0-0.2,0-0.3c0,0,0.1,0.1,0.1,0.1c0,0.2,0,0.4,0,0.5c0,8.1,0,16.2,0,24.3c0,0.1,0,0.2,0,0.4c0.1,0.2,0.2,0.1,0.4,0.1
	c2.6,0,5.1,0,7.7,0C124.6,108.2,124.8,108.2,124.9,108.2z"/>
<path class="st8" d="M49.3,108.1C49.3,108.2,49.3,108.2,49.3,108.1c-0.1,0-0.1-0.1-0.1-0.2c0-8.3,0-16.7,0-25c0-0.1,0-0.1,0-0.2
	c0,0,0.1,0,0.1,0c0.1,0.1,0.1,0.2,0.1,0.3c0,8.2,0,16.4,0,24.6C49.4,107.8,49.4,108,49.3,108.1z"/>
<path class="st9" d="M96.1,93.1c-0.1-0.1-0.1-0.3-0.1-0.4c0-7,0-13.9,0-20.9c0,0,0-0.1,0-0.1c0,0,0.1,0,0.1,0c0,0.1,0,0.2,0,0.3
	c0,6.9,0,13.9,0,20.8C96.1,92.9,96.1,93,96.1,93.1z"/>
<path class="st4" d="M102.8,107.9c0.2,0.3,0.4,0.3,0.7,0.3c3.1,0,6.2,0,9.2,0c0.1,0,0.3,0.1,0.4-0.1c0.1,0.1,0.1,0.1,0,0.2
	c-0.1,0-0.2,0-0.3,0c-3.2,0-6.4,0-9.6,0C103,108.3,102.8,108.2,102.8,107.9z"/>
<path class="st4" d="M41.9,108.1C41.9,108.1,41.9,108.1,41.9,108.1c0,0.2-0.1,0.1-0.2,0.1c-2.6,0-5.3,0-7.9,0
	c-0.1,0-0.2,0.1-0.3-0.1C36.3,108.1,39.1,108.1,41.9,108.1z"/>
<path class="st4" d="M22.9,108.1C22.9,108.2,22.9,108.2,22.9,108.1c-0.1,0.1-0.2,0.1-0.3,0.1c-2.6,0-5.2,0-7.7,0
	c-0.1,0-0.3,0.1-0.3-0.1C17.3,108.1,20.1,108.1,22.9,108.1C22.9,108.1,22.9,108.1,22.9,108.1z"/>
<path class="st10" d="M57.7,72.2c0.1,0.1,0,0.1,0,0.2c0,2,0,4,0,6c0,0.1,0,0.1,0,0.2c0,0-0.1,0-0.1,0c0,0,0-0.1-0.1-0.1
	c0-0.1,0-0.1,0-0.2c0-1.9,0-3.7,0-5.6c0-0.2,0-0.3,0.1-0.5C57.6,72.2,57.7,72.1,57.7,72.2z"/>
<path class="st9" d="M96.1,108.1C96,108.1,96,108.1,96.1,108.1c-0.1-4-0.1-8-0.1-12.1c0-0.1-0.1-0.3,0.1-0.4c0,4.1,0,8.2,0,12.3
	C96.1,108,96.1,108.1,96.1,108.1z"/>
<path class="st11" d="M124.8,108.1c0-3.6,0-7.2,0-10.8c0-0.1,0-0.3,0.1-0.4c0,0.2,0,0.4,0,0.5c0,3.4,0,6.9,0,10.3
	C124.9,107.9,124.9,108,124.8,108.1C124.9,108.2,124.8,108.2,124.8,108.1z"/>
<path class="st12" d="M112.4,82.9c0-0.2-0.2-0.1-0.3-0.1c-2.8,0-5.6,0-8.4,0c-0.2,0-0.3,0-0.5,0c0.1-0.1,0.2-0.1,0.2-0.1
	c2.9,0,5.9,0,8.8,0c0.1,0,0.2,0,0.2,0C112.6,82.8,112.5,82.9,112.4,82.9z"/>
<path class="st13" d="M29,82.8c-2,0-4,0-6,0c-0.1-0.4,0-0.9,0-1.3c0-0.3,0-0.7,0-1c0-0.1,0-0.2,0-0.4c0,0,0,0,0.1,0
	c0,0.8,0,1.6,0,2.4c0,0.3,0.2,0.2,0.3,0.2c1.8,0,3.5,0,5.3,0C28.8,82.7,29,82.6,29,82.8z"/>
<path class="st14" d="M57.6,78.5C57.7,78.5,57.7,78.6,57.6,78.5c0,0.1-0.1,0.1-0.2,0.1c-2.6,0-5.3,0-7.9,0c-0.1,0-0.2,0.1-0.3-0.1
	c0,0,0.1-0.1,0.1-0.1c0.1,0,0.3,0,0.4,0c2.5,0,4.9,0,7.4,0C57.3,78.5,57.5,78.4,57.6,78.5z"/>
<path class="st12" d="M49.3,82.8C49.3,82.8,49.3,82.8,49.3,82.8c0-0.1,0.1-0.1,0.2-0.1c2.7,0,5.3,0,8,0c0.1,0,0.2-0.1,0.3,0.1
	c0,0-0.1,0-0.1,0c-0.1,0.1-0.3,0.1-0.5,0.1c-2.5,0-4.9,0-7.4,0C49.6,82.9,49.4,82.9,49.3,82.8z"/>
<path class="st15" d="M124.8,108.1C124.8,108.1,124.9,108.1,124.8,108.1C124.9,108.2,124.9,108.2,124.8,108.1
	c-2.7,0.1-5.4,0.1-8.1,0.1c-0.1,0-0.2,0-0.3-0.1c0,0,0,0,0.1,0c0,0,0,0,0.1,0C119.3,108.1,122.1,108.1,124.8,108.1z"/>
<path class="st16" d="M57.7,72.2C57.7,72.2,57.7,72.2,57.7,72.2c-0.2,0.1-0.3,0.1-0.4,0.1c-2.6,0-5.1,0-7.7,0c-0.1,0-0.2,0-0.2,0
	c0,0-0.1,0-0.1-0.1c0.1-0.1,0.2-0.1,0.3-0.1c2.6,0,5.2,0,7.9,0C57.5,72.1,57.6,72,57.7,72.2z"/>
<path class="st17" d="M42,71.6c-2.8,0-5.6,0-8.4,0c0,0,0,0,0,0s0,0,0,0c0-0.2,0.2-0.1,0.3-0.1c2.6,0,5.3,0,7.9,0
	C41.8,71.5,41.9,71.5,42,71.6z"/>
<path class="st17" d="M96.1,71.6C96,71.6,96,71.6,96.1,71.6c-0.3,0.1-0.5,0-0.7,0c-2.5,0-4.9,0-7.4,0c-0.1,0-0.2,0-0.3,0
	c0,0,0,0,0-0.1c0.1,0,0.2,0,0.3,0c2.6,0,5.2,0,7.8,0C95.8,71.5,96,71.5,96.1,71.6z"/>
<path class="st18" d="M124,82.8c-2.5,0-4.9,0-7.4,0c-0.1,0-0.1,0-0.2,0c0,0,0,0,0,0c0.1-0.1,0.2-0.1,0.3-0.1c2.4,0,4.8,0,7.1,0
	c0.1,0,0.2-0.1,0.3,0.1C124.1,82.8,124.1,82.8,124,82.8z"/>
<path class="st8" d="M49.2,72.2C49.3,72.2,49.3,72.2,49.2,72.2c0.2,0.1,0.1,0.2,0.1,0.4c0,1.9,0,3.8,0,5.7c0,0.1,0,0.1,0,0.2
	c0,0,0,0.1-0.1,0.1c0,0,0,0-0.1,0c0-0.3,0-0.7,0-1c0-1.7,0-3.4,0-5C49.2,72.4,49.2,72.3,49.2,72.2z"/>
<path class="st19" d="M23.1,88.9C23.1,88.9,23.1,88.9,23.1,88.9C23.1,88.9,23.1,88.9,23.1,88.9c0.1-0.1,0.3-0.1,0.4-0.1
	c1.8,0,3.5,0,5.3,0c0,0,0.1,0,0.1,0c0,0,0.1,0,0.1,0.1c-0.1,0-0.1,0-0.2,0C26.9,88.9,25,88.9,23.1,88.9z"/>
<path class="st20" d="M14.7,82.7c-0.1,0.1-0.2,0.1-0.3,0.1c-1.6,0-3.2,0-4.8,0c0.1-0.2,0.2-0.1,0.3-0.1C11.4,82.7,13,82.7,14.7,82.7
	C14.6,82.7,14.6,82.7,14.7,82.7z"/>
<path class="st21" d="M14.4,88.9C14.5,88.9,14.5,88.9,14.4,88.9c-1.5,0.1-3,0.1-4.5,0.1c-0.1,0-0.2,0.1-0.3-0.1c0,0,0,0,0.1,0
	c0.5-0.1,1,0,1.5,0c1,0,2.1,0,3.1,0C14.3,88.8,14.4,88.8,14.4,88.9z"/>
<path class="st22" d="M124,82.8c0,0,0.1,0,0.1,0c0,1.4,0,2.8,0,4.3c0,0.1,0,0.2,0,0.3c-0.2,0-0.1-0.2-0.1-0.2c0-1.3,0-2.6,0-4
	C124.1,83,124.1,82.9,124,82.8z"/>
<path class="st23" d="M14.7,82.7C14.6,82.7,14.6,82.7,14.7,82.7c-0.1-0.8-0.1-1.5-0.1-2.3c0-0.1,0-0.3,0.1-0.4
	C14.7,80.9,14.7,81.8,14.7,82.7z"/>
<path class="st24" d="M78.4,82.2c-0.7,0-1.4,0-2.1,0c0,0,0,0,0,0c0,0,0,0,0,0c0.6,0,1.2,0,1.9,0C78.2,82.1,78.3,82.1,78.4,82.2z"/>
<path class="st25" d="M84,107c-0.1-0.6,0-1.1,0-1.7c0.1,0.3,0,0.6,0.1,0.9C84.1,106.5,84,106.8,84,107z"/>
<path class="st26" d="M130.6,89.5c0.5-0.1,1-0.1,1.5,0C131.6,89.5,131.1,89.5,130.6,89.5z"/>
<path class="st27" d="M84,104.7c-0.1-0.5,0-1,0-1.5C84.1,103.7,84,104.2,84,104.7z"/>
<path class="st28" d="M83.9,102.3c-0.1-0.3,0-0.6-0.1-0.9c0-0.1,0-0.3-0.2-0.2c0.2-0.1,0.3-0.2,0.3,0.1
	C83.9,101.7,83.9,102,83.9,102.3z"/>
<path class="st29" d="M82.1,108.2c0.3-0.1,0.6-0.2,1-0.2C82.7,108.1,82.4,108.2,82.1,108.2z"/>
<path class="st30" d="M125.2,94.8c-0.1-0.4,0.1-0.7,0.2-1C125.3,94.1,125.2,94.5,125.2,94.8z"/>
<path class="st31" d="M79.3,102.3c-0.4,0.1-0.9,0.1-1.3,0C78.4,102.3,78.9,102.3,79.3,102.3z"/>
<path class="st32" d="M132,82.2c-0.4,0-0.8,0-1.3,0C131.2,82,131.6,82.2,132,82.2C132,82.2,132.1,82.2,132,82.2
	C132,82.2,132,82.2,132,82.2z"/>
<path class="st33" d="M79,88.6c0.3,0.1,0.6-0.1,0.9,0.1C79.6,88.7,79.2,88.8,79,88.6z"/>
<path class="st34" d="M133.9,89.7c0-0.3-0.1-0.5,0.1-0.8C134,89.1,134.1,89.4,133.9,89.7z"/>
<path class="st35" d="M25.7,77.1c0.3-0.1,0.6-0.1,1,0C26.3,77.2,26,77.2,25.7,77.1z"/>
<path class="st36" d="M24,71c-0.2,0.1-0.5,0.1-0.7,0.1C23.5,70.9,23.7,71,24,71z"/>
<path class="st37" d="M27,71.1c-0.1,0-0.3,0.1-0.4-0.1C26.7,71,26.8,71,27,71.1z"/>
<path class="st38" d="M28.9,75c-0.1-0.1-0.1-0.3,0-0.4C29,74.7,29,74.8,28.9,75z"/>
<path class="st39" d="M29.2,72c-0.1-0.1-0.1-0.3,0-0.4c0-0.1,0,0,0.1,0C29.3,71.8,29.3,71.9,29.2,72z"/>
<path class="st40" d="M29.1,73.5c-0.1-0.1-0.1-0.3,0-0.4C29.1,73.3,29.2,73.4,29.1,73.5z"/>
<path class="st41" d="M23.1,80.1C23.1,80.1,23.1,80.1,23.1,80.1c-0.1-0.2,0-0.4,0.1-0.6C23.1,79.7,23.1,79.9,23.1,80.1z"/>
<path class="st42" d="M23,71.1c-0.1,0.1-0.1,0.1-0.4,0C22.7,71,22.9,71,23,71.1z"/>
<path class="st43" d="M29,74.3c-0.1-0.2,0-0.3,0.1-0.5C29.1,74,29.1,74.1,29,74.3z"/>
<path class="st44" d="M134,88.5c0-0.3-0.1-0.5,0.1-0.8C134.1,88,134.2,88.3,134,88.5z"/>
<path class="st45" d="M71.7,94.4c-0.1-0.2,0-0.4,0.1-0.6C71.7,94,71.8,94.2,71.7,94.4z"/>
<path class="st46" d="M83.5,87.6c0-0.2-0.1-0.3,0-0.5C83.6,87.3,83.5,87.5,83.5,87.6z"/>
<path class="st47" d="M75.7,108.8c0.2,0,0.5,0,0.7,0.1C76.2,108.8,76,108.9,75.7,108.8z"/>
<path class="st48" d="M132.3,89.5c0.2-0.1,0.3-0.1,0.5,0C132.6,89.6,132.4,89.6,132.3,89.5z"/>
<path class="st49" d="M77.7,108.8c0.2-0.1,0.4-0.1,0.6-0.1C78.1,108.9,77.9,108.8,77.7,108.8z"/>
<path class="st50" d="M29.1,72.8c-0.1-0.1-0.1-0.3,0-0.4C29.2,72.5,29.2,72.7,29.1,72.8z"/>
<path class="st51" d="M26.2,71c-0.2,0.1-0.4,0-0.6,0C25.9,71,26.1,70.9,26.2,71z"/>
<path class="st52" d="M124.9,96.6c0-0.2,0-0.4,0.1-0.6C124.9,96.3,125,96.5,124.9,96.6z"/>
<path class="st53" d="M14.8,79.1c0,0.2,0,0.4,0,0.6C14.7,79.5,14.6,79.3,14.8,79.1z"/>
<path class="st54" d="M75,108.7c0.2,0,0.3,0,0.5,0.1C75.3,108.7,75.2,108.8,75,108.7z"/>
<path class="st55" d="M78.8,108.7c0.1-0.1,0.3,0,0.5,0C79.1,108.8,78.9,108.7,78.8,108.7z"/>
<path class="st56" d="M126.5,84.1c-0.1,0.2-0.2,0.3-0.3,0.3C126.2,84.3,126.3,84.2,126.5,84.1z"/>
<path class="st57" d="M133,89.6c0.1,0,0.2-0.1,0.3,0C133.1,89.7,133.1,89.7,133,89.6z"/>
<path class="st58" d="M130.1,89.6c0.1-0.1,0.2-0.1,0.4,0C130.4,89.6,130.2,89.6,130.1,89.6z"/>
<path class="st59" d="M14.8,78.6c0,0.1,0,0.3,0,0.4C14.8,78.9,14.7,78.7,14.8,78.6z"/>
<path class="st60" d="M134.3,84.1c0-0.1,0-0.3,0-0.4c0,0,0,0,0,0C134.3,83.9,134.4,84,134.3,84.1z"/>
<path class="st61" d="M76.3,82.2C76.3,82.2,76.3,82.2,76.3,82.2c-0.1,0.1-0.3,0.1-0.4,0.1C76,82.1,76.2,82.1,76.3,82.2z"/>
<path class="st62" d="M132,82.2C132,82.2,132,82.2,132,82.2c0.1-0.1,0.3-0.1,0.4,0C132.3,82.2,132.2,82.2,132,82.2z"/>
<path class="st63" d="M83.7,84.9c0-0.1-0.1-0.3,0.1-0.4C83.8,84.7,83.8,84.8,83.7,84.9z"/>
<path class="st64" d="M134.2,85.2c0-0.1,0-0.3,0-0.4c0,0,0,0,0,0C134.3,84.9,134.3,85.1,134.2,85.2z"/>
<path class="st65" d="M83.6,85.6c0-0.1,0-0.3,0.1-0.4C83.7,85.3,83.8,85.5,83.6,85.6z"/>
<path class="st66" d="M133.1,82.3c-0.1,0-0.3,0-0.4-0.1C132.8,82.2,133,82.1,133.1,82.3z"/>
<path class="st67" d="M83.6,86.3c0-0.1-0.1-0.3,0.1-0.4C83.6,86,83.7,86.2,83.6,86.3z"/>
<path class="st68" d="M134.1,86.3c0-0.1,0-0.3,0-0.4c0,0,0,0,0.1,0C134.2,86,134.3,86.2,134.1,86.3z"/>
<path class="st69" d="M83.5,86.9c-0.1-0.1-0.1-0.3,0-0.4C83.6,86.6,83.6,86.8,83.5,86.9z"/>
<path class="st70" d="M134.1,87c0-0.1,0-0.3,0.1-0.4C134.1,86.7,134.1,86.8,134.1,87C134.1,87,134.1,87,134.1,87z"/>
<path class="st71" d="M134.1,87C134.1,87,134.1,87,134.1,87c0.1,0.1,0.1,0.3,0,0.4C134.1,87.3,134.1,87.1,134.1,87z"/>
<path class="st72" d="M23.8,78.1c0-0.1,0.1-0.2,0.2-0.3C24,78,23.9,78.1,23.8,78.1z"/>
<path class="st73" d="M26.9,77.1c0.1,0,0.3-0.1,0.4,0.1C27.2,77.2,27,77.3,26.9,77.1z"/>
<path class="st74" d="M28.7,77.2c0-0.1,0-0.3,0.1-0.4C28.8,76.9,28.9,77.1,28.7,77.2z"/>
<path class="st75" d="M74.9,82.3c-0.1,0.1-0.2,0.1-0.4,0.1C74.7,82.2,74.8,82.3,74.9,82.3z"/>
<path class="st76" d="M79.1,82.2c-0.1,0.1-0.2,0.1-0.4,0C78.9,82.2,79,82.2,79.1,82.2z"/>
<path class="st77" d="M79.5,108.7c0.1-0.1,0.2-0.1,0.3-0.1C79.7,108.7,79.6,108.7,79.5,108.7z"/>
<path class="st78" d="M75.5,82.2c-0.1,0.1-0.2,0.1-0.4,0.1C75.2,82.1,75.4,82.2,75.5,82.2z"/>
<path class="st79" d="M134,82.4c-0.1,0-0.2,0-0.3-0.1C133.8,82.3,133.9,82.3,134,82.4z"/>
<path class="st80" d="M134.3,83.7C134.3,83.7,134.3,83.7,134.3,83.7c-0.1-0.1-0.1-0.2,0-0.3C134.3,83.5,134.3,83.6,134.3,83.7z"/>
<path class="st81" d="M83.8,84.3c0-0.1,0-0.3,0.1-0.4C83.8,84,83.9,84.2,83.8,84.3z"/>
<path class="st82" d="M134.3,84.8C134.2,84.8,134.2,84.8,134.3,84.8c-0.1-0.1-0.1-0.2,0-0.3C134.3,84.6,134.3,84.7,134.3,84.8z"/>
<path class="st83" d="M80,102.2c-0.1,0.1-0.2,0.1-0.4,0C79.7,102.2,79.8,102.2,80,102.2z"/>
<path class="st84" d="M81.8,102c-0.1,0-0.2,0.1-0.3,0C81.6,101.9,81.7,101.9,81.8,102C81.8,101.9,81.8,101.9,81.8,102
	C81.8,102,81.8,102,81.8,102z"/>
<path class="st85" d="M81.8,102C81.8,101.9,81.8,101.9,81.8,102c0.1-0.1,0.1-0.1,0.2-0.1C82,102,81.9,102,81.8,102z"/>
<path class="st86" d="M134.2,85.9C134.2,85.9,134.2,85.9,134.2,85.9c-0.1-0.1-0.1-0.2,0-0.3C134.2,85.7,134.2,85.8,134.2,85.9z"/>
<path class="st87" d="M76.7,88.7c0.1-0.1,0.2-0.1,0.3,0C76.9,88.8,76.8,88.8,76.7,88.7z"/>
<path class="st88" d="M15.2,76.6c0,0.1,0,0.2-0.1,0.3C15.1,76.8,15.2,76.7,15.2,76.6z"/>
<path class="st5" d="M87.6,71.6c2.8,0,5.6,0,8.3,0c0,0,0,0.1,0,0.1c-0.2-0.1-0.5-0.1-0.7-0.1c-2.3,0-4.7,0-7,0c-0.6,0-0.6,0-0.6,0.6
	c0,12,0,23.9,0,35.9c-0.1-0.1-0.1-0.2-0.1-0.3c0-12,0-24,0-36C87.6,71.7,87.6,71.7,87.6,71.6z"/>
<path class="st89" d="M22.9,108.1C22.9,108.1,22.9,108.1,22.9,108.1c0-0.1,0-0.3,0-0.4c0-6.1,0-12.2,0-18.3c0-0.1-0.2-0.3,0.1-0.5
	c0,1.3,0,2.7,0,4c0,4.9,0,9.8,0,14.7C23,107.9,23,108,22.9,108.1z"/>
<path class="st90" d="M28.9,88.9c-1.9,0-3.9,0-5.8,0c0-0.1,0-0.1,0.1-0.1c1.8,0.1,3.6,0,5.4,0.1C28.7,88.8,28.9,88.6,28.9,88.9z"/>
<path class="st90" d="M14.4,88.9c-1.6,0-3.2,0-4.8,0c0.1-0.1,0.2-0.1,0.4-0.1c1.3,0,2.6,0,3.9,0C14.1,88.8,14.3,88.6,14.4,88.9z"/>
<path class="st91" d="M23,80.5c0,0.8,0,1.5,0,2.3c-0.1,0-0.1-0.1-0.1-0.2c0-0.7,0-1.3,0-2C23,80.6,23,80.5,23,80.5z"/>
<path class="st92" d="M116.4,82.8c0.1,0,0.1,0,0.2,0c0,0,0,0-0.1,0.1c0,0.2,0,0.4,0,0.6c0,8.1,0,16.2,0,24.3c0,0.1,0,0.3,0,0.4l0,0
	c0,0,0,0,0,0c0-0.1,0-0.2,0-0.3c0-8.2,0-16.4,0-24.6C116.4,83.1,116.4,82.9,116.4,82.8z"/>
<path class="st93" d="M116.5,108.1c0-3.7,0-7.3,0-11c0-4.6,0-9.2,0-13.9c0-0.1-0.1-0.3,0.1-0.4c0.1,0.2,0,0.5,0,0.7
	C116.6,91.7,116.6,99.9,116.5,108.1C116.6,108.1,116.5,108.1,116.5,108.1L116.5,108.1z"/>
<path class="st2" d="M49.3,82.8c2.3,0,4.5,0,6.8,0c0.5,0,1,0,1.5,0c0,0,0,0,0,0.1c0.1,0.1,0,0.2,0,0.3c0,0.2,0,0.3,0,0.5
	c0,8,0,16,0,24c0,0.2,0,0.4-0.1,0.5c-2.7,0-5.5,0-8.2,0c-0.1-0.1,0-0.3,0-0.4c0-8.1,0-16.2,0-24.4c0-0.1,0-0.3,0-0.4
	C49.3,82.9,49.3,82.8,49.3,82.8z"/>
<path class="st10" d="M57.6,83.1c0-0.1,0-0.2,0-0.3C57.8,82.9,57.7,83.1,57.6,83.1c0.1,8.3,0.1,16.5,0.1,24.7c0,0.1,0.1,0.3-0.1,0.3
	c-0.1-0.1,0-0.2,0-0.4c0-8.1,0-16.2,0-24.3C57.6,83.3,57.6,83.2,57.6,83.1z"/>
<path class="st94" d="M49.3,83c0.1,0.1,0.1,0.2,0.1,0.4c0,8.3,0,16.5,0,24.8c0,0,0,0-0.1,0c0-0.8,0-1.7,0-2.5
	C49.3,98.1,49.3,90.5,49.3,83z"/>
<path class="st95" d="M57.6,83.1c0,8.3,0,16.6,0,24.9c0,0.1,0,0.1,0,0.2c0,0,0,0,0,0s0,0,0,0c0-8.2,0-16.5,0-24.7
	C57.6,83.3,57.5,83.2,57.6,83.1z"/>
<path class="st2" d="M57.6,78.3c0,0,0,0.1,0,0.1c-0.1,0.1-0.2,0-0.2,0c-2.6,0-5.2,0-7.9,0c-0.1,0-0.1,0-0.2,0c0-0.1,0-0.2,0-0.3
	c0-1.9,0-3.7,0-5.6c0-0.3,0.1-0.4,0.4-0.4c2.5,0,5,0,7.6,0c0.4,0,0.4,0,0.4,0.4c0,1.8,0,3.6,0,5.4C57.6,78.1,57.6,78.2,57.6,78.3z"
	/>
<path class="st96" d="M57.6,78.3c-0.1-0.1-0.1-0.3-0.1-0.4c0-1.8,0-3.5,0-5.3c0-0.3-0.1-0.4-0.4-0.4c-2.5,0-5,0-7.5,0
	c-0.3,0-0.3,0.1-0.3,0.3c0,1.9,0,3.9,0,5.8c0,0,0,0-0.1,0c0-2.1,0-4.2,0-6.3c2.8,0,5.6,0,8.3,0C57.6,74.2,57.6,76.3,57.6,78.3z"/>
<path class="st97" d="M49.3,78.5C49.3,78.5,49.3,78.5,49.3,78.5c2.8,0,5.6,0,8.3,0c0,0,0,0,0,0.1C54.9,78.5,52.1,78.5,49.3,78.5
	C49.3,78.5,49.3,78.5,49.3,78.5z"/>
</svg>
